<?xml version="1.0" encoding="UTF-8"?>
<svg id="b" data-name="Layer 2" xmlns="http://www.w3.org/2000/svg" width="271.442" height="245.286" viewBox="0 0 271.442 245.286">
  <g id="c" data-name="Layer 5">
    <path d="M248.115,73.96c-6.296-1.224-12.392,2.888-13.616,9.184l-18.471,95.023L183.222,9.394c-1.156-5.945-6.655-9.936-12.565-9.334-5.91-.603-11.41,3.389-12.565,9.334l-32.361,166.481-26.424-135.942c-1.115-5.737-6.278-9.646-11.949-9.372-5.671-.274-10.833,3.635-11.949,9.372l-26.196,134.769L23.016,39.933c-1.224-6.296-7.32-10.408-13.616-9.184h0C3.104,31.973-1.008,38.069.216,44.365l37.228,191.521c1.103,5.676,6.169,9.563,11.769,9.379,5.6.184,10.665-3.703,11.769-9.379l26.376-135.695,26.376,135.695c1.118,5.753,6.307,9.669,11.997,9.37,5.69.299,10.878-3.617,11.997-9.37l32.929-169.407,32.929,169.407c1.148,5.904,6.579,9.887,12.442,9.351,5.863.535,11.295-3.448,12.442-9.351l28.829-148.31c1.224-6.296-2.888-12.392-9.184-13.616Z"/>
    <circle cx="170.687" cy="199.898" r="18.424" fill="#00aeef"/>
    <circle cx="253.019" cy="48.71" r="18.424" fill="#00aeef"/>
  </g>
</svg>