<?xml version="1.0" encoding="UTF-8"?>
<svg id="b" data-name="Layer 2" xmlns="http://www.w3.org/2000/svg" width="169.073" height="169.073" viewBox="0 0 169.073 169.073">
  <g id="c" data-name="box">
    <rect width="169.073" height="169.073" fill="#ed1c24"/>
    <rect x="0" y="0" width="169.073" height="169.073" fill="#a7a9ac"/>
  </g>
  <g id="d" data-name="emblem">
    <g>
      <path d="M137.322,61.673c-2.957-.575-5.82,1.356-6.395,4.313l-8.675,44.628-15.407-79.264c-.543-2.792-3.126-4.667-5.901-4.384-2.776-.283-5.359,1.592-5.901,4.384l-15.198,78.187-12.41-63.845c-.524-2.694-2.948-4.53-5.612-4.401-2.663-.129-5.088,1.707-5.612,4.401l-12.303,63.294-12.303-63.294c-.575-2.957-3.438-4.888-6.395-4.313h0c-2.957.575-4.888,3.438-4.313,6.395l17.484,89.947c.518,2.666,2.897,4.491,5.527,4.405,2.63.086,5.009-1.739,5.527-4.405l12.388-63.729,12.388,63.729c.525,2.702,2.962,4.541,5.634,4.4,2.672.14,5.109-1.699,5.634-4.4l15.465-79.562,15.465,79.562c.539,2.773,3.09,4.643,5.844,4.392,2.754.251,5.305-1.619,5.843-4.392l13.539-69.653c.575-2.957-1.356-5.82-4.313-6.395Z" fill="#fff"/>
      <circle cx="100.958" cy="120.819" r="8.653" fill="#00aeef"/>
      <circle cx="139.625" cy="49.814" r="8.653" fill="#00aeef"/>
    </g>
  </g>
</svg>