<?xml version="1.0" encoding="UTF-8"?>
<svg id="b" data-name="Layer 2" xmlns="http://www.w3.org/2000/svg" width="1043.033" height="169.073" viewBox="0 0 1043.033 169.073">
  <g id="c" data-name="Layer 10">
    <rect x="169.073" width="873.96" height="169.073" fill="#00aeef"/>
  </g>
  <g id="d" data-name="Layer 6">
    <rect width="169.073" height="169.073"/>
  </g>
  <g id="e" data-name="Layer 5">
    <g>
      <path d="M137.322,61.673c-2.957-.575-5.82,1.356-6.395,4.313l-8.675,44.628-15.407-79.264c-.543-2.792-3.126-4.667-5.901-4.384-2.776-.283-5.359,1.592-5.901,4.384l-15.198,78.187-12.41-63.845c-.524-2.694-2.948-4.53-5.612-4.401-2.663-.129-5.088,1.707-5.612,4.401l-12.303,63.294-12.303-63.294c-.575-2.957-3.438-4.888-6.395-4.313h0c-2.957.575-4.888,3.438-4.313,6.395l17.484,89.947c.518,2.666,2.897,4.491,5.527,4.405,2.63.086,5.009-1.739,5.527-4.405l12.388-63.729,12.388,63.729c.525,2.702,2.962,4.541,5.634,4.4,2.672.14,5.109-1.699,5.634-4.4l15.465-79.562,15.465,79.562c.539,2.773,3.09,4.643,5.844,4.392,2.754.251,5.305-1.619,5.843-4.392l13.539-69.653c.575-2.957-1.356-5.82-4.313-6.395Z" fill="#fff"/>
      <circle cx="100.958" cy="120.819" r="8.653" fill="#00aeef"/>
      <circle cx="139.625" cy="49.814" r="8.653" fill="#00aeef"/>
    </g>
  </g>
  <g id="f" data-name="Layer 7">
    <g>
      <path d="M244.766,105.406l-9.711-44.021-9.834,44.021c-.765,3.339-1.373,5.734-1.823,7.187-.451,1.452-1.236,2.754-2.356,3.906-1.121,1.152-2.609,1.728-4.466,1.728-1.502,0-2.739-.343-3.708-1.026-.97-.684-1.756-1.653-2.356-2.905-.602-1.252-1.093-2.737-1.475-4.457-.383-1.719-.724-3.313-1.024-4.783l-9.998-49.429c-.601-2.871-.901-5.058-.901-6.561,0-1.903.546-3.505,1.639-4.808,1.092-1.302,2.444-1.953,4.056-1.953,2.213,0,3.701.869,4.466,2.604.765,1.737,1.434,4.257,2.008,7.562l7.867,42.868,8.81-40.114c.656-3.071,1.243-5.409,1.762-7.011.519-1.603,1.366-2.988,2.541-4.157,1.174-1.168,2.772-1.753,4.794-1.753,2.049,0,3.64.61,4.773,1.828,1.133,1.219,1.919,2.546,2.356,3.981.437,1.436,1.024,3.806,1.762,7.111l8.892,40.114,7.867-42.868c.382-2.237.744-3.989,1.085-5.259.341-1.268.929-2.404,1.762-3.405.833-1.001,2.042-1.502,3.626-1.502s2.93.643,4.036,1.928c1.106,1.286,1.66,2.896,1.66,4.833,0,1.37-.301,3.556-.901,6.561l-9.998,49.429c-.683,3.339-1.25,5.784-1.7,7.336-.451,1.553-1.216,2.914-2.295,4.082-1.079,1.168-2.602,1.753-4.568,1.753-1.858,0-3.347-.568-4.466-1.703-1.121-1.135-1.899-2.412-2.335-3.831-.438-1.419-1.052-3.848-1.844-7.287Z" fill="#fff"/>
      <path d="M308.462,93.787h-21.88c.027,3.105.539,5.843,1.537,8.213.997,2.371,2.321,4.157,3.975,5.359,1.652,1.202,3.476,1.803,5.47,1.803,1.338,0,2.561-.192,3.667-.576s2.178-.984,3.216-1.803c1.038-.817,1.994-1.694,2.868-2.629.874-.935,2.008-2.204,3.401-3.806.573-.601,1.393-.901,2.458-.901,1.147,0,2.076.384,2.787,1.152.71.768,1.065,1.853,1.065,3.255,0,1.236-.396,2.679-1.188,4.332-.792,1.653-1.987,3.239-3.585,4.758-1.598,1.52-3.605,2.779-6.023,3.781s-5.198,1.502-8.338,1.502c-7.185,0-12.771-2.504-16.759-7.512-3.989-5.008-5.982-11.802-5.982-20.383,0-4.039.492-7.788,1.475-11.243s2.417-6.418,4.303-8.889c1.885-2.47,4.206-4.365,6.965-5.684,2.759-1.318,5.818-1.978,9.178-1.978,4.371,0,8.12,1.127,11.248,3.38s5.47,5.167,7.027,8.739c1.557,3.573,2.335,7.212,2.335,10.917,0,3.439-.806,5.668-2.417,6.686-1.612,1.019-3.879,1.527-6.802,1.527ZM286.582,86.024h20.282c-.273-4.674-1.305-8.17-3.093-10.492-1.79-2.32-4.146-3.48-7.068-3.48-2.786,0-5.074,1.177-6.863,3.531-1.789,2.354-2.875,5.834-3.257,10.441Z" fill="#fff"/>
      <path d="M335.486,50.117v20.883c2.103-2.67,4.247-4.715,6.433-6.135,2.185-1.418,4.889-2.128,8.113-2.128,3.715,0,6.972,1.077,9.772,3.23,2.8,2.153,4.971,5.275,6.515,9.365,1.543,4.09,2.315,8.939,2.315,14.548,0,4.14-.43,7.938-1.291,11.393-.861,3.456-2.11,6.453-3.75,8.989-1.639,2.538-3.626,4.5-5.961,5.885-2.336,1.385-4.911,2.078-7.724,2.078-1.721,0-3.339-.25-4.855-.751-1.516-.501-2.807-1.16-3.872-1.979-1.065-.817-1.974-1.66-2.725-2.529-.751-.868-1.742-2.17-2.971-3.906v1.352c0,2.571-.506,4.516-1.516,5.834-1.011,1.318-2.294,1.978-3.852,1.978-1.584,0-2.848-.66-3.79-1.978s-1.414-3.263-1.414-5.834v-59.695c0-2.771.457-4.866,1.373-6.285.915-1.418,2.192-2.128,3.831-2.128,1.721,0,3.045.676,3.975,2.028.928,1.352,1.393,3.28,1.393,5.784ZM336.019,90.732c0,5.442,1.017,9.624,3.053,12.545,2.035,2.922,4.705,4.382,8.01,4.382,2.813,0,5.238-1.494,7.273-4.482,2.035-2.988,3.053-7.27,3.053-12.846,0-3.606-.424-6.711-1.27-9.315-.847-2.604-2.049-4.615-3.606-6.035-1.557-1.418-3.374-2.128-5.45-2.128-2.13,0-4.029.71-5.695,2.128-1.667,1.419-2.978,3.473-3.934,6.16-.957,2.688-1.434,5.885-1.434,9.59Z" fill="#fff"/>
      <path d="M436.121,108.661l-2.868-9.214h-24.421l-2.868,9.415c-1.121,3.673-2.077,6.152-2.869,7.437-.792,1.285-2.089,1.928-3.893,1.928-1.53,0-2.882-.685-4.056-2.053-1.175-1.369-1.762-2.921-1.762-4.657,0-1.002.137-2.036.41-3.105.272-1.068.723-2.554,1.352-4.458l15.365-47.676c.437-1.368.963-3.012,1.578-4.933.615-1.919,1.27-3.514,1.967-4.783.697-1.269,1.611-2.295,2.745-3.08,1.133-.784,2.534-1.177,4.2-1.177,1.693,0,3.107.393,4.241,1.177,1.133.785,2.049,1.795,2.745,3.03.697,1.236,1.284,2.563,1.762,3.981.478,1.419,1.086,3.314,1.823,5.684l15.693,47.376c1.229,3.605,1.844,6.227,1.844,7.862,0,1.703-.581,3.264-1.741,4.683-1.162,1.419-2.561,2.128-4.2,2.128-.957,0-1.776-.209-2.458-.626-.683-.418-1.257-.984-1.721-1.703-.465-.718-.963-1.819-1.496-3.305-.533-1.485-.99-2.796-1.373-3.932ZM412.028,88.278h17.947l-9.055-30.298-8.892,30.298Z" fill="#fff"/>
      <path d="M497.564,72.653v39.713c0,4.541-.396,8.446-1.188,11.719-.792,3.271-2.062,5.976-3.811,8.113-1.749,2.136-4.036,3.722-6.863,4.758-2.827,1.034-6.345,1.552-10.551,1.552-3.852,0-7.293-.659-10.326-1.978-3.032-1.319-5.368-3.022-7.007-5.108-1.639-2.087-2.458-4.231-2.458-6.436,0-1.67.464-3.03,1.393-4.082s2.049-1.577,3.36-1.577c1.639,0,3.073.884,4.302,2.654.601.902,1.222,1.811,1.864,2.729.642.918,1.352,1.703,2.131,2.354.778.651,1.714,1.135,2.807,1.452,1.092.317,2.349.477,3.77.477,2.895,0,5.143-.493,6.74-1.478,1.598-.985,2.718-2.362,3.36-4.132.642-1.77,1.018-3.665,1.127-5.684.109-2.02.191-5.266.246-9.741-1.721,2.938-3.708,5.176-5.962,6.711-2.254,1.536-4.938,2.304-8.052,2.304-3.743,0-7.014-1.168-9.813-3.505-2.8-2.337-4.951-5.609-6.453-9.816-1.503-4.207-2.254-9.064-2.254-14.573,0-4.106.457-7.812,1.373-11.118.915-3.306,2.219-6.093,3.913-8.364,1.694-2.27,3.647-3.981,5.859-5.133,2.213-1.152,4.644-1.728,7.293-1.728,3.169,0,5.914.744,8.236,2.229,2.321,1.486,4.479,3.815,6.474,6.986v-1.853c0-2.37.478-4.207,1.434-5.509.956-1.302,2.185-1.953,3.688-1.953,2.158,0,3.592.86,4.302,2.579.71,1.72,1.065,4.199,1.065,7.437ZM465.152,89.981c0,5.542.99,9.733,2.971,12.57,1.98,2.838,4.541,4.257,7.683,4.257,1.857,0,3.612-.609,5.266-1.828,1.652-1.218,2.998-3.055,4.036-5.509s1.557-5.434,1.557-8.939c0-5.575-1.004-9.916-3.012-13.021s-4.65-4.658-7.928-4.658c-3.196,0-5.757,1.486-7.683,4.457-1.926,2.972-2.889,7.195-2.889,12.67Z" fill="#fff"/>
      <path d="M537.166,93.787h-21.88c.027,3.105.539,5.843,1.537,8.213.997,2.371,2.321,4.157,3.975,5.359,1.652,1.202,3.476,1.803,5.47,1.803,1.338,0,2.562-.192,3.667-.576,1.106-.384,2.179-.984,3.217-1.803,1.038-.817,1.994-1.694,2.868-2.629.874-.935,2.008-2.204,3.401-3.806.573-.601,1.393-.901,2.458-.901,1.147,0,2.076.384,2.786,1.152s1.065,1.853,1.065,3.255c0,1.236-.396,2.679-1.188,4.332-.793,1.653-1.987,3.239-3.586,4.758-1.598,1.52-3.605,2.779-6.023,3.781-2.417,1.001-5.197,1.502-8.338,1.502-7.185,0-12.771-2.504-16.759-7.512-3.989-5.008-5.982-11.802-5.982-20.383,0-4.039.492-7.788,1.475-11.243s2.417-6.418,4.303-8.889c1.885-2.47,4.206-4.365,6.965-5.684,2.759-1.318,5.818-1.978,9.179-1.978,4.37,0,8.119,1.127,11.247,3.38s5.471,5.167,7.027,8.739c1.557,3.573,2.336,7.212,2.336,10.917,0,3.439-.807,5.668-2.418,6.686-1.612,1.019-3.879,1.527-6.802,1.527ZM515.286,86.024h20.283c-.273-4.674-1.305-8.17-3.094-10.492-1.79-2.32-4.146-3.48-7.068-3.48-2.786,0-5.074,1.177-6.863,3.531-1.789,2.354-2.875,5.834-3.257,10.441Z" fill="#fff"/>
      <path d="M565.132,70.199v1.653c1.967-3.171,4.117-5.5,6.453-6.986,2.336-1.485,5.02-2.229,8.052-2.229,2.95,0,5.586.785,7.908,2.354,2.321,1.569,4.057,3.79,5.203,6.661.738,1.669,1.216,3.473,1.435,5.409.218,1.937.328,4.407.328,7.412v25.44c0,2.738-.513,4.808-1.537,6.21-1.024,1.402-2.355,2.104-3.995,2.104-1.666,0-3.019-.718-4.057-2.153s-1.557-3.488-1.557-6.16v-22.786c0-4.507-.513-7.954-1.536-10.342-1.024-2.386-3.067-3.581-6.126-3.581-1.994,0-3.811.726-5.45,2.179-1.639,1.452-2.841,3.448-3.605,5.984-.547,2.037-.819,5.843-.819,11.418v17.127c0,2.772-.526,4.85-1.577,6.235-1.053,1.385-2.411,2.078-4.077,2.078-1.612,0-2.937-.718-3.975-2.153-1.039-1.435-1.558-3.488-1.558-6.16v-39.513c0-2.604.465-4.549,1.394-5.834.929-1.285,2.198-1.928,3.811-1.928.983,0,1.871.284,2.663.852.792.568,1.428,1.419,1.905,2.554.478,1.136.718,2.521.718,4.157Z" fill="#fff"/>
      <path d="M605.431,63.839h1.229v-8.213c0-2.204.048-3.931.144-5.183s.361-2.329.799-3.23c.437-.934,1.065-1.694,1.885-2.278.819-.584,1.734-.876,2.745-.876,1.421,0,2.705.651,3.853,1.953.764.869,1.249,1.928,1.454,3.18s.308,3.03.308,5.333v9.315h4.098c1.583,0,2.792.459,3.626,1.377.833.919,1.25,2.096,1.25,3.531,0,1.836-.595,3.122-1.783,3.856-1.188.735-2.889,1.102-5.101,1.102h-2.09v25.14c0,2.137.062,3.781.185,4.933.122,1.152.45,2.087.983,2.805.532.718,1.399,1.077,2.602,1.077.655,0,1.543-.142,2.663-.426,1.12-.283,1.994-.425,2.622-.425.902,0,1.714.443,2.438,1.327.724.885,1.086,1.979,1.086,3.28,0,2.204-.983,3.89-2.95,5.058-1.967,1.168-4.794,1.753-8.481,1.753-3.497,0-6.146-.718-7.949-2.153s-2.985-3.422-3.545-5.959c-.56-2.537-.84-5.926-.84-10.167v-26.242h-1.475c-1.612,0-2.842-.467-3.688-1.402-.847-.935-1.27-2.12-1.27-3.556s.443-2.612,1.331-3.531c.888-.918,2.179-1.377,3.872-1.377Z" fill="#fff"/>
      <path d="M655.095,109.162v-57.842c0-3.005.56-5.259,1.68-6.761,1.12-1.502,2.567-2.253,4.344-2.253,1.829,0,3.312.744,4.445,2.229,1.133,1.486,1.7,3.748,1.7,6.786v57.842c0,3.039-.567,5.309-1.7,6.811-1.134,1.502-2.616,2.253-4.445,2.253-1.749,0-3.19-.76-4.323-2.279-1.134-1.519-1.7-3.781-1.7-6.786Z" fill="#fff"/>
      <path d="M689.411,70.199v1.653c1.967-3.171,4.117-5.5,6.453-6.986,2.336-1.485,5.02-2.229,8.052-2.229,2.95,0,5.586.785,7.908,2.354,2.321,1.569,4.057,3.79,5.203,6.661.738,1.669,1.216,3.473,1.435,5.409.218,1.937.328,4.407.328,7.412v25.44c0,2.738-.513,4.808-1.537,6.21-1.024,1.402-2.355,2.104-3.995,2.104-1.666,0-3.019-.718-4.057-2.153s-1.557-3.488-1.557-6.16v-22.786c0-4.507-.513-7.954-1.536-10.342-1.024-2.386-3.067-3.581-6.126-3.581-1.994,0-3.811.726-5.45,2.179-1.639,1.452-2.841,3.448-3.605,5.984-.547,2.037-.819,5.843-.819,11.418v17.127c0,2.772-.526,4.85-1.577,6.235-1.053,1.385-2.411,2.078-4.077,2.078-1.612,0-2.937-.718-3.975-2.153-1.039-1.435-1.558-3.488-1.558-6.16v-39.513c0-2.604.465-4.549,1.394-5.834.929-1.285,2.198-1.928,3.811-1.928.983,0,1.871.284,2.663.852.792.568,1.428,1.419,1.905,2.554.478,1.136.718,2.521.718,4.157Z" fill="#fff"/>
      <path d="M729.71,63.839h1.229v-8.213c0-2.204.048-3.931.144-5.183s.361-2.329.799-3.23c.437-.934,1.065-1.694,1.885-2.278.819-.584,1.734-.876,2.745-.876,1.421,0,2.705.651,3.853,1.953.764.869,1.249,1.928,1.454,3.18s.308,3.03.308,5.333v9.315h4.098c1.583,0,2.792.459,3.626,1.377.833.919,1.25,2.096,1.25,3.531,0,1.836-.595,3.122-1.783,3.856-1.188.735-2.889,1.102-5.101,1.102h-2.09v25.14c0,2.137.062,3.781.185,4.933.122,1.152.45,2.087.983,2.805.532.718,1.399,1.077,2.602,1.077.655,0,1.543-.142,2.663-.426,1.12-.283,1.994-.425,2.622-.425.902,0,1.714.443,2.438,1.327.724.885,1.086,1.979,1.086,3.28,0,2.204-.983,3.89-2.95,5.058-1.967,1.168-4.794,1.753-8.481,1.753-3.497,0-6.146-.718-7.949-2.153s-2.985-3.422-3.545-5.959c-.56-2.537-.84-5.926-.84-10.167v-26.242h-1.475c-1.612,0-2.842-.467-3.688-1.402-.847-.935-1.27-2.12-1.27-3.556s.443-2.612,1.331-3.531c.888-.918,2.179-1.377,3.872-1.377Z" fill="#fff"/>
      <path d="M789.186,93.787h-21.881c.027,3.105.54,5.843,1.537,8.213.997,2.371,2.321,4.157,3.975,5.359,1.652,1.202,3.476,1.803,5.47,1.803,1.338,0,2.562-.192,3.667-.576,1.106-.384,2.179-.984,3.217-1.803,1.038-.817,1.994-1.694,2.868-2.629.874-.935,2.008-2.204,3.401-3.806.573-.601,1.393-.901,2.458-.901,1.147,0,2.076.384,2.786,1.152s1.065,1.853,1.065,3.255c0,1.236-.396,2.679-1.188,4.332-.793,1.653-1.987,3.239-3.586,4.758-1.598,1.52-3.605,2.779-6.023,3.781-2.417,1.001-5.197,1.502-8.338,1.502-7.185,0-12.771-2.504-16.759-7.512-3.988-5.008-5.982-11.802-5.982-20.383,0-4.039.492-7.788,1.476-11.243s2.417-6.418,4.302-8.889c1.885-2.47,4.207-4.365,6.966-5.684,2.759-1.318,5.818-1.978,9.179-1.978,4.37,0,8.119,1.127,11.247,3.38s5.471,5.167,7.027,8.739c1.557,3.573,2.336,7.212,2.336,10.917,0,3.439-.807,5.668-2.418,6.686-1.612,1.019-3.879,1.527-6.802,1.527ZM767.305,86.024h20.283c-.273-4.674-1.305-8.17-3.094-10.492-1.79-2.32-4.146-3.48-7.068-3.48-2.786,0-5.074,1.177-6.863,3.531-1.789,2.354-2.875,5.834-3.258,10.441Z" fill="#fff"/>
      <path d="M818.095,98.495v11.418c0,2.772-.533,4.85-1.599,6.235-1.065,1.385-2.417,2.078-4.057,2.078-1.611,0-2.937-.701-3.974-2.104-1.039-1.402-1.558-3.472-1.558-6.21v-38.061c0-6.143,1.816-9.215,5.45-9.215,1.856,0,3.195.718,4.015,2.153.82,1.436,1.271,3.556,1.353,6.36,1.338-2.805,2.711-4.924,4.118-6.36,1.406-1.435,3.284-2.153,5.634-2.153s4.63.718,6.843,2.153c2.213,1.436,3.319,3.339,3.319,5.709,0,1.669-.472,3.047-1.414,4.131-.942,1.085-1.96,1.627-3.053,1.627-.409,0-1.4-.308-2.971-.926-1.571-.617-2.957-.926-4.158-.926-1.64,0-2.979.526-4.016,1.577-1.039,1.052-1.844,2.613-2.418,4.683-.573,2.07-.97,4.532-1.188,7.387s-.327,6.335-.327,10.442Z" fill="#fff"/>
      <path d="M842.004,63.839h2.663v-4.107c0-4.273.444-7.67,1.332-10.191.888-2.521,2.39-4.357,4.507-5.509s5.02-1.728,8.707-1.728c6.528,0,9.793,1.953,9.793,5.859,0,1.269-.342,2.354-1.024,3.255s-1.489,1.352-2.417,1.352c-.438,0-1.188-.1-2.254-.3-1.065-.201-1.967-.301-2.704-.301-2.021,0-3.319.726-3.893,2.179-.573,1.452-.86,3.53-.86,6.235v3.255h2.745c4.262,0,6.392,1.569,6.392,4.708,0,2.237-.566,3.656-1.7,4.257-1.134.601-2.697.901-4.691.901h-2.745v36.208c0,2.705-.526,4.767-1.578,6.185-1.052,1.419-2.411,2.128-4.076,2.128-1.585,0-2.903-.709-3.954-2.128-1.052-1.418-1.578-3.48-1.578-6.185v-36.208h-3.073c-1.666,0-2.95-.458-3.852-1.377-.901-.918-1.352-2.111-1.352-3.581,0-3.271,1.87-4.908,5.613-4.908Z" fill="#fff"/>
      <path d="M897.177,110.514c-2.704,2.571-5.32,4.5-7.847,5.784-2.526,1.285-5.361,1.928-8.502,1.928-2.868,0-5.389-.693-7.56-2.078-2.172-1.385-3.846-3.263-5.02-5.634-1.175-2.37-1.762-4.94-1.762-7.712,0-3.739.969-6.927,2.909-9.565,1.938-2.637,4.603-4.407,7.989-5.309.71-.2,2.473-.651,5.286-1.352s5.225-1.344,7.232-1.928c2.007-.584,4.186-1.293,6.535-2.128-.137-3.606-.731-6.251-1.782-7.938-1.052-1.686-3.23-2.529-6.536-2.529-2.841,0-4.979.484-6.412,1.452-1.435.969-2.663,2.421-3.688,4.357-1.024,1.937-1.749,3.213-2.172,3.831-.424.618-1.332.926-2.725.926-1.257,0-2.343-.492-3.258-1.478-.915-.984-1.373-2.245-1.373-3.781,0-2.404.697-4.74,2.09-7.011,1.394-2.27,3.565-4.14,6.516-5.609,2.95-1.469,6.623-2.204,11.021-2.204,4.917,0,8.782.709,11.596,2.128,2.813,1.419,4.801,3.665,5.962,6.736,1.161,3.072,1.742,7.145,1.742,12.219,0,3.205-.008,5.927-.021,8.163-.015,2.237-.035,4.725-.062,7.462,0,2.571.348,5.251,1.045,8.038.696,2.788,1.045,4.582,1.045,5.383,0,1.402-.54,2.68-1.619,3.832s-2.302,1.728-3.667,1.728c-1.147,0-2.281-.66-3.401-1.978s-2.309-3.23-3.564-5.734ZM896.44,90.732c-1.639.735-4.022,1.511-7.15,2.329-3.128.818-5.293,1.419-6.494,1.803-1.202.384-2.35,1.135-3.442,2.253-1.093,1.119-1.639,2.68-1.639,4.683,0,2.07.642,3.831,1.926,5.284,1.284,1.452,2.964,2.178,5.04,2.178,2.213,0,4.254-.592,6.126-1.778,1.87-1.185,3.243-2.712,4.117-4.582,1.011-2.07,1.517-5.476,1.517-10.217v-1.953Z" fill="#fff"/>
      <path d="M958.046,101.299c0,1.703-.417,3.523-1.25,5.459-.833,1.937-2.104,3.781-3.811,5.534-1.707,1.753-3.858,3.164-6.453,4.232-2.596,1.068-5.519,1.603-8.769,1.603-6.911,0-12.307-2.462-16.186-7.387-3.879-4.924-5.818-11.526-5.818-19.807,0-5.609.888-10.567,2.664-14.874,1.775-4.307,4.343-7.637,7.703-9.991,3.359-2.354,7.375-3.531,12.046-3.531,2.896,0,5.553.518,7.97,1.552,2.418,1.036,4.467,2.371,6.146,4.007,1.68,1.636,2.964,3.38,3.852,5.233.888,1.853,1.332,3.581,1.332,5.184,0,1.636-.499,3.022-1.496,4.157-.997,1.135-2.206,1.703-3.626,1.703-.929,0-1.7-.292-2.315-.876-.614-.584-1.305-1.527-2.069-2.83-1.366-2.537-2.793-4.44-4.281-5.709-1.489-1.269-3.381-1.903-5.676-1.903-3.305,0-5.969,1.578-7.989,4.733-2.022,3.155-3.032,7.47-3.032,12.945,0,2.571.259,4.933.778,7.086.519,2.154,1.271,3.99,2.254,5.509.983,1.52,2.171,2.671,3.564,3.456,1.394.785,2.923,1.177,4.589,1.177,2.24,0,4.159-.634,5.757-1.903,1.599-1.269,3.012-3.205,4.241-5.809.683-1.536,1.42-2.737,2.213-3.606.792-.868,1.762-1.302,2.909-1.302,1.365,0,2.499.635,3.4,1.903.901,1.269,1.353,2.621,1.353,4.056Z" fill="#fff"/>
      <path d="M998.181,93.787h-21.881c.027,3.105.54,5.843,1.537,8.213.997,2.371,2.321,4.157,3.975,5.359,1.652,1.202,3.476,1.803,5.47,1.803,1.338,0,2.562-.192,3.667-.576,1.106-.384,2.179-.984,3.217-1.803,1.038-.817,1.994-1.694,2.868-2.629.874-.935,2.008-2.204,3.401-3.806.573-.601,1.393-.901,2.458-.901,1.147,0,2.076.384,2.786,1.152s1.065,1.853,1.065,3.255c0,1.236-.396,2.679-1.188,4.332-.793,1.653-1.987,3.239-3.586,4.758-1.598,1.52-3.605,2.779-6.023,3.781-2.417,1.001-5.197,1.502-8.338,1.502-7.185,0-12.771-2.504-16.759-7.512-3.988-5.008-5.982-11.802-5.982-20.383,0-4.039.492-7.788,1.476-11.243s2.417-6.418,4.302-8.889c1.885-2.47,4.207-4.365,6.966-5.684,2.759-1.318,5.818-1.978,9.179-1.978,4.37,0,8.119,1.127,11.247,3.38s5.471,5.167,7.027,8.739c1.557,3.573,2.336,7.212,2.336,10.917,0,3.439-.807,5.668-2.418,6.686-1.612,1.019-3.879,1.527-6.802,1.527ZM976.3,86.024h20.283c-.273-4.674-1.305-8.17-3.094-10.492-1.79-2.32-4.146-3.48-7.068-3.48-2.786,0-5.074,1.177-6.863,3.531-1.789,2.354-2.875,5.834-3.258,10.441Z" fill="#fff"/>
    </g>
  </g>
</svg>